# AST/ASF file generated using VICON BodyLanguage
# -----------------------------------------------
:version 1.10
:name VICON
:units
  mass 1.0
  length 0.45
  angle deg
:documentation
   .ast/.asf automatically generated from VICON data using
   VICON BodyBuilder and BodyLanguage model FoxedUp or BRILLIANT.MOD
:root
   order TX TY TZ RX RY RZ
   axis XYZ
   position 0 0 0  
   orientation 0 0 0 
:bonedata
  begin
     id 1 
     name lhipjoint
     direction 0.603808 -0.713975 0.35448 
     length 2.2025 
     axis 0 0 0  XYZ
  end
  begin
     id 2 
     name lfemur
     direction 0.34202 -0.939693 0  
     length 6.55877  
     axis 0 0 20  XYZ
    dof rx ry rz
    limits (-160.0 20.0)
           (-70.0 70.0)
           (-60.0 70.0)
  end
  begin
     id 3 
     name ltibia
     direction 0.34202 -0.939693 0   
     length 6.80302   
     axis 0 0 20   XYZ
    dof rx
    limits (-10.0 170.0)
  end
  begin
     id 4 
     name lfoot
     direction 0.091848 -0.25235 0.963267   
     length 2.03446   
     axis -90 7.62852e-016 20   XYZ
    dof rx rz
    limits (-45.0 90.0)
           (-70.0 20.0)
  end
  begin
     id 5 
     name ltoes
     direction 1.53608e-011 -4.21925e-011 1   
     length 1.02033   
     axis -90 7.62852e-016 20   XYZ
    dof rx
    limits (-90.0 20.0)
  end
  begin
     id 6 
     name rhipjoint
     direction -0.587285 -0.724947 0.359928   
     length 2.16916  
     axis 0 0 0  XYZ 
  end
  begin
     id 7 
     name rfemur
     direction -0.34202 -0.939693 0   
     length 6.43173   
     axis 0 0 -20   XYZ
    dof rx ry rz
    limits (-160.0 20.0)
           (-70.0 70.0)
           (-70.0 60.0)
  end
  begin
     id 8 
     name rtibia
     direction -0.34202 -0.939693 0   
     length 6.70662   
     axis 0 0 -20   XYZ
    dof rx
    limits (-10.0 170.0)
 end
 begin
     id 9 
     name rfoot
     direction -0.11854 -0.325686 0.938018   
     length 2.0773  
     axis -90 -7.62852e-016 -20   XYZ
    dof rx rz
    limits (-45.0 90.0)
           (-20.0 70.0)
  end
  begin
     id 10 
     name rtoes
     direction -1.53547e-011 -4.21838e-011 1   
     length 1.03267   
     axis -90 -7.62852e-016 -20   XYZ
    dof rx
    limits (-90.0 20.0)
  end
  begin
     id 11 
     name lowerback
     direction -0.0286554 0.999539 0.0100613   
     length 2.08751   
     axis 0 0 0   XYZ
    dof rx ry rz
    limits (-20.0 45.0)
           (-30.0 30.0)
           (-30.0 30.0)
  end
  begin
     id 12 
     name upperback
     direction 0.0227093 0.999705 -0.00860929   
     length 2.08517   
     axis 0 0 0   XYZ
    dof rx ry rz
    limits (-20.0 45.0)
           (-30.0 30.0)
           (-30.0 30.0)
  end
  begin
     id 13 
     name thorax
     direction 0.0351627 0.999285 -0.013892   
     length 2.08412   
     axis 0 0 0   XYZ
    dof rx ry rz
    limits (-20.0 45.0)
           (-30.0 30.0)
           (-30.0 30.0)
  end
  begin
     id 14 
     name lowerneck
     direction -0.0696283 0.997344 0.0213922   
     length 1.44164   
     axis 0 0 0   XYZ
    dof rx ry rz
    limits (-20.0 45.0)
           (-30.0 30.0)
           (-30.0 30.0)
  end
  begin
     id 15 
     name upperneck
     direction 0.0531 0.990412 -0.127531   
     length 1.45022   
     axis 0 0 0   XYZ
    dof rx ry rz
    limits (-20.0 45.0)
           (-30.0 30.0)
           (-30.0 30.0)
  end
  begin
     id 16
     name head
     direction 0.0188154 0.998548 -0.0504727  
     length 1.45845  
     axis 0 0 0   XYZ
    dof rx ry rz
    limits (-20.0 45.0)
           (-30.0 30.0)
           (-30.0 30.0)
  end
  begin
     id 17 
     name lclavicle
     direction 0.961559 0.260051 0.088188  
     length 2.86057  
     axis 0 0 0   XYZ
    dof ry rz
    limits (-20.0 10.0)
           (0.0 20.0)
  end
  begin
     id 18 
     name lhumerus
     direction 1 -4.48959e-011 2.88185e-027   
     length 4.36901   
     axis 180 -30 -90   XYZ
    dof rx ry rz
    limits (-60.0 90.0)
           (-90.0 90.0)
           (-90.0 90.0)
  end
  begin
     id 19
     name lradius
     direction 1 -4.48965e-011 -3.92618e-028   
     length 3.21737   
     axis 180 -30 -90   XYZ
    dof rx
    limits (-10.0 170.0)
  end
  begin
     id 20
     name lwrist
     direction 1 -4.49037e-011 2.57246e-027   
     length 1.60869   
     axis -1.61769e-015 90 90   XYZ
    dof ry
    limits (-180.0 0.0)
 end
  begin
     id 21 
     name lhand
     direction 1 -4.48807e-011 5.12958e-027   
     length 0.564313   
     axis -3.27988e-015 90 90   XYZ
    dof rx rz
    limits (-90.0 90.0)
           (-45.0 45.0)
  end
  begin
     id 22 
     name lfingers
     direction 1 -4.48879e-011 1.02687e-026   
     length 0.454963   
     axis -6.5598e-015 90 90   XYZ
    dof rx
    limits (0.0 90.0)
  end
  begin
     id 23
     name lthumb
     direction 0.707107 -6.3475e-011 0.707107   
     length 0.653239   
     axis -90 45 2.19363e-014   XYZ
    dof rx rz
    limits (-45.0 45.0)
           (-45.0 45.0)
  end
  begin
     id 24 
     name rclavicle
     direction -0.954677 0.253915 0.155304   
     length 3.11497  
     axis 0 0 0   XYZ 
    dof ry rz
    limits (-10.0 20.0)
           (-20.0 0.0)
  end
  begin
     id 25 
     name rhumerus
     direction -1 -4.48958e-011 -8.20169e-028  
     length 4.34118   
     axis 180 30 90   XYZ
    dof rx ry rz
    limits (-90.0 60.0)
           (-90.0 90.0)
           (-90.0 90.0)
  end
  begin
     id 26 
     name rradius
     direction -1 -4.48978e-011 1.5676e-027   
     length 3.09531   
     axis 180 30 90   XYZ
    dof rx
    limits (-10.0 170.0)
  end
  begin
     id 27 
     name rwrist
     direction -1 -4.49001e-011 2.57123e-027   
     length 1.54765   
     axis -1.61769e-015 -90 -90   XYZ
    dof ry
    limits (-180.0 0.0)
  end
  begin
     id 28
     name rhand
     direction -1 -4.48847e-011 5.13225e-027   
     length 0.597446   
     axis -3.27988e-015 -90 -90   XYZ
    dof rx rz
    limits (-90.0 90.0)
           (-45.0 45.0)
  end
  begin
     id 29
     name rfingers
     direction -1 -4.49094e-011 1.02974e-026   
     length 0.481677   
     axis -6.5598e-015 -90 -90   XYZ
    dof rx
    limits (0.0 90.0)
  end
  begin
     id 30
     name rthumb
     direction -0.707107 -6.34859e-011 0.707107   
     length 0.691594   
     axis -90 -45 -2.19363e-014   XYZ
    dof rx rz
    limits (-45.0 45.0)
           (-45.0 45.0)
  end
:hierarchy
  begin
    root lhipjoint rhipjoint lowerback
    lhipjoint lfemur
    lfemur ltibia
    ltibia lfoot
    lfoot ltoes
    rhipjoint rfemur
    rfemur rtibia
    rtibia rfoot
    rfoot rtoes
    lowerback upperback
    upperback thorax
    thorax lowerneck lclavicle rclavicle
    lowerneck upperneck
    upperneck head
    lclavicle lhumerus
    lhumerus lradius
    lradius lwrist
    lwrist lhand lthumb
    lhand lfingers
    rclavicle rhumerus
    rhumerus rradius
    rradius rwrist
    rwrist rhand rthumb
    rhand rfingers
  end

#!OML:ASF G:\acrobat\cartwheel_test 2\Patient 1\Session 1\acrobat.ASF
:FULLY-SPECIFIED
:DEGREES
242
root 7.64191 14.5677 -0.458863 -9.28956 0.0091207 0.861205
lowerback -1.44024 -1.62657 -4.60975
upperback 0.731705 -2.10654 2.06562
thorax 1.80747 -1.12091 4.65454
lowerneck -1.27929 -14.3368 -14.0788
upperneck 12.7053 -19.6724 7.134
head 6.16317 -9.92708 2.94015
rclavicle 9.24349e-015 4.77083e-015
rhumerus 46.9592 5.28878 -65.1196
rradius 19.9488
rwrist 29.4578
rhand -4.37089 30.648
rfingers 7.12502
rthumb 21.3978 1.80952
lclavicle 9.24349e-015 4.77083e-015
lhumerus 41.7479 -16.2466 41.5347
lradius 29.1064
lwrist 13.0105
lhand -3.50108 42.0582
lfingers 7.12502
lthumb 22.233 70.7995
rfemur -10.3368 -7.11193 11.9224
rtibia 52.6496
rfoot -30.1518 -15.4136
rtoes -14.62
lfemur -13.9376 4.89133 -9.39823
ltibia 55.0705
lfoot -25.2883 11.2353
ltoes -14.6235
243
root 7.64094 14.5663 -0.457525 -9.26221 0.00030051 0.791159
lowerback -1.46319 -1.61142 -4.54235
upperback 0.728232 -2.08727 2.09311
thorax 1.81306 -1.11074 4.64513
lowerneck -1.29396 -14.3573 -14.1308
upperneck 12.7501 -19.7035 7.16462
head 6.19163 -9.94227 2.94902
rclavicle 1.54058e-014 1.43125e-014
rhumerus 46.9566 5.26296 -65.0525
rradius 19.9121
rwrist 29.3767
rhand -4.38851 30.7435
rfingers 7.12502
rthumb 21.3808 1.90311
lclavicle 1.54058e-014 1.43125e-014
lhumerus 41.7662 -16.2579 41.5971
lradius 29.0971
lwrist 12.9625
lhand -3.51801 42.0346
lfingers 7.12502
lthumb 22.2167 70.7778
rfemur -10.3805 -7.1341 12.0182
rtibia 52.6805
rfoot -30.1099 -15.5391
rtoes -15.1862
lfemur -13.9771 4.93502 -9.30734
ltibia 55.0794
lfoot -25.249 11.3234
ltoes -15.0368
244
root 7.64 14.5655 -0.45582 -9.24621 -0.0139158 0.755413
lowerback -1.50232 -1.60789 -4.50916
upperback 0.734397 -2.08186 2.10623
thorax 1.84006 -1.10856 4.63902
lowerneck -1.27907 -14.3546 -14.1216
upperneck 12.7416 -19.7016 7.16534
head 6.18539 -9.94137 2.94982
rclavicle -5.1684e-015 -1.11319e-014
rhumerus 46.9394 5.25116 -65.055
rradius 19.9132
rwrist 29.3467
rhand -4.39178 30.9042
rfingers 7.12502
rthumb 21.3777 2.06346
lclavicle -5.1684e-015 -1.11319e-014
lhumerus 41.7536 -16.24 41.6688
lradius 29.0891
lwrist 12.9092
lhand -3.60641 42.0785
lfingers 7.12502
lthumb 22.1319 70.8317
rfemur -10.4048 -7.11221 12.0718
rtibia 52.7006
rfoot -30.0909 -15.5257
rtoes -15.131
lfemur -13.9888 4.95833 -9.25673
ltibia 55.0695
lfoot -25.2317 11.3267
ltoes -15.1004
245
root 7.63844 14.5652 -0.454182 -9.2717 0.0005463 0.754157
lowerback -1.51565 -1.608 -4.52064
upperback 0.756455 -2.08116 2.11027
thorax 1.87084 -1.10969 4.64904
lowerneck -1.23768 -14.3756 -14.095
upperneck 12.7294 -19.7306 7.12573
head 6.17105 -9.95757 2.93497
rclavicle 1.12313e-014 -1.98785e-014
rhumerus 46.9158 5.24237 -65.0484
rradius 19.9363
rwrist 29.3734
rhand -4.35311 31.0418
rfingers 7.12502
rthumb 21.4148 2.20527
lclavicle 1.12313e-014 -1.98785e-014
lhumerus 41.7577 -16.2782 41.658
lradius 29.0958
lwrist 12.9071
lhand -3.73286 42.1858
lfingers 7.12502
lthumb 22.0105 70.9534
rfemur -10.3709 -7.091 12.075
rtibia 52.7027
rfoot -30.162 -15.494
rtoes -14.8984
lfemur -13.9538 4.95083 -9.2451
ltibia 55.0775
lfoot -25.2616 11.2694
ltoes -14.9454
246
root 7.63797 14.5655 -0.453339 -9.27295 0.00652259 0.783063
lowerback -1.53855 -1.60237 -4.53598
upperback 0.766906 -2.07204 2.09582
thorax 1.89347 -1.10601 4.64225
lowerneck -1.17835 -14.3941 -14.054
upperneck 12.6831 -19.7568 7.08628
head 6.14116 -9.97225 2.92139
rclavicle -1.40143e-014 -3.18055e-015
rhumerus 46.9084 5.2393 -65.0276
rradius 19.9309
rwrist 29.3004
rhand -4.20646 31.1447
rfingers 7.12502
rthumb 21.5557 2.32433
lclavicle -1.40143e-014 -3.18055e-015
lhumerus 41.7665 -16.2772 41.6736
lradius 29.0864
lwrist 12.8229
lhand -3.744 42.1385
lfingers 7.12502
lthumb 21.9998 70.9073
rfemur -10.3768 -7.10535 12.0318
rtibia 52.7025
rfoot -30.1954 -15.4675
rtoes -14.7506
lfemur -13.9554 4.9663 -9.27814
ltibia 55.1027
lfoot -25.2628 11.2942
ltoes -15.0614
